<svg width="170" height="170" viewBox="0 0 170 170" fill="none" xmlns="http://www.w3.org/2000/svg">
<path d="M169.994 -0.00308228H-0.00396729V169.994H169.994V-0.00308228Z" fill="#0895A3"/>
<path d="M84.9968 89.7435C106.501 89.7411 114.239 68.211 116.265 50.5229C118.761 28.7339 108.457 12.3352 84.9968 12.3352C61.5409 12.3352 51.2329 28.7327 53.7286 50.5229C55.7564 68.2095 63.4913 89.7458 84.9968 89.7435Z" fill="white"/>
<path d="M143.169 141.015C142.934 134.152 142.129 127.257 140.932 120.5C139.481 112.316 137.634 100.316 130.488 94.9834C126.355 91.8994 121.003 90.8876 116.272 89.0278C113.97 88.1231 111.907 87.2246 109.971 86.2018C103.437 93.3673 94.9163 97.1158 84.993 97.1163C75.0735 97.1163 66.554 93.3678 60.0197 86.2018C58.0837 87.2248 56.0209 88.1236 53.7183 89.0278C48.9873 90.8876 43.6357 91.8991 39.5035 94.9834C32.357 100.317 30.5103 112.317 29.0595 120.5C27.8615 127.257 27.057 134.152 26.8222 141.015C26.6403 146.331 29.2651 147.076 33.7124 148.681C39.2815 150.689 45.031 152.18 50.819 153.403C61.9977 155.763 73.5205 157.578 84.9937 157.659C96.4671 157.577 107.99 155.763 119.168 153.403C124.956 152.181 130.706 150.69 136.275 148.681C140.724 147.077 143.348 146.331 143.167 141.015H143.169Z" fill="white"/>
</svg>
