<svg height="512pt" viewBox="0 0 512 512" width="512pt" xmlns="http://www.w3.org/2000/svg"><path d="m416 512h-320c-53.023438 0-96-42.976562-96-96v-320c0-53.023438 42.976562-96 96-96h320c53.023438 0 96 42.976562 96 96v320c0 53.023438-42.976562 96-96 96zm0 0" fill="#e3f8fa"/><path d="m384 256c0 70.691406-57.308594 128-128 128s-128-57.308594-128-128 57.308594-128 128-128 128 57.308594 128 128zm0 0" fill="#26c6da"/><path d="m266.671875 264.703125v33.96875c0 5.886719-4.769531 10.671875-10.671875 10.671875-5.886719 0-10.671875-4.785156-10.671875-10.671875v-33.96875c-12.382813-4.414063-21.328125-16.144531-21.328125-30.03125 0-17.648437 14.351562-32 32-32s32 14.351563 32 32c0 13.886719-8.945312 25.617187-21.328125 30.03125zm0 0" fill="#8ce1eb"/></svg>